<?xml version="1.0" encoding="UTF-8" standalone="no"?>
<!DOCTYPE svg PUBLIC "-//W3C//DTD SVG 1.1//EN" "http://www.w3.org/Graphics/SVG/1.1/DTD/svg11.dtd">
<svg width="100%" height="100%" viewBox="0 0 1418 1418" version="1.1" xmlns="http://www.w3.org/2000/svg" xmlns:xlink="http://www.w3.org/1999/xlink" xml:space="preserve" xmlns:serif="http://www.serif.com/" style="fill-rule:evenodd;clip-rule:evenodd;stroke-linecap:round;stroke-linejoin:round;stroke-miterlimit:1.5;">
    <g transform="matrix(0.223805,0,0,0.223805,1053.17,902.607)">
        <path d="M193.79,1018.64C175.353,987.805 164.737,951.646 164.737,912.994C164.737,800.22 255.111,708.661 366.427,708.661C397.707,708.661 427.332,715.891 453.764,728.789C454.439,614.445 548.582,521.819 664.443,521.819C780.722,521.819 875.126,615.113 875.126,730.026C875.126,741.861 874.125,753.467 872.201,764.765C888.202,764.822 903.806,766.334 918.842,769.155C930.598,677.275 1021.13,605.703 1130.92,605.703C1248.68,605.703 1344.29,688.048 1344.29,789.475C1344.29,824.625 1332.81,857.483 1312.9,885.417C1332.84,914.638 1344.29,948.755 1344.29,985.183C1344.29,996.589 1343.17,1007.77 1341.02,1018.64L193.79,1018.64Z" style="fill:rgb(3,131,82);"/>
        <path d="M738.005,1018.64L193.79,1018.64C175.353,987.805 164.737,951.646 164.737,912.994C164.737,800.22 255.111,708.661 366.427,708.661C397.707,708.661 427.332,715.891 453.764,728.789C454.439,614.445 548.582,521.819 664.443,521.819C690.313,521.819 715.1,526.437 738.005,534.883L738.005,1018.64Z" style="fill:rgb(4,149,94);"/>
    </g>
    <g transform="matrix(0.223805,0,0,0.223805,34.9489,902.607)">
        <path d="M193.79,1018.64C175.353,987.805 164.737,951.646 164.737,912.994C164.737,800.22 255.111,708.661 366.427,708.661C397.707,708.661 427.332,715.891 453.764,728.789C454.439,614.445 548.582,521.819 664.443,521.819C780.722,521.819 875.126,615.113 875.126,730.026C875.126,741.861 874.125,753.467 872.201,764.765C888.202,764.822 903.806,766.334 918.842,769.155C930.598,677.275 1021.13,605.703 1130.92,605.703C1248.68,605.703 1344.29,688.048 1344.29,789.475C1344.29,824.625 1332.81,857.483 1312.9,885.417C1332.84,914.638 1344.29,948.755 1344.29,985.183C1344.29,996.589 1343.17,1007.77 1341.02,1018.64L193.79,1018.64Z" style="fill:rgb(3,131,82);"/>
        <path d="M738.005,1018.64L193.79,1018.64C175.353,987.805 164.737,951.646 164.737,912.994C164.737,800.22 255.111,708.661 366.427,708.661C397.707,708.661 427.332,715.891 453.764,728.789C454.439,614.445 548.582,521.819 664.443,521.819C690.313,521.819 715.1,526.437 738.005,534.883L738.005,1018.64Z" style="fill:rgb(4,149,94);"/>
    </g>
    <g transform="matrix(1,0,0,1,61.4208,-108.118)">
        <g>
            <path d="M1021.92,867.66L1105.52,989.413L188.061,989.413L271.662,867.66L1021.92,867.66Z" style="fill:rgb(186,57,36);"/>
            <g transform="matrix(1.21382,0,0,1.00481,-67.514,31.4481)">
                <rect x="494.708" y="832.213" width="13.724" height="121.17" style="fill:rgb(149,43,23);"/>
            </g>
        </g>
        <g>
            <g>
                <g transform="matrix(0.223684,0,0,15.3272,502.113,-17886.4)">
                    <rect x="212.433" y="1219.64" width="868.713" height="19.062" style="fill:rgb(53,148,145);"/>
                </g>
                <g transform="matrix(1,0,0,1,1.13687e-13,29.1729)">
                    <path d="M646.79,694.065L743.948,779.125L549.631,779.125L646.79,694.065Z" style="fill:rgb(53,148,145);"/>
                </g>
                <path d="M550.262,808.298L637.671,732.955L637.093,732.456L637.479,731.389L645.583,724.295L646.649,725.216L647.859,724.174L654.489,729.979L655.208,732.614L743.948,809.306L743.948,824.409L743.809,824.57L723.799,807.298L646.426,740.511L569.188,807.298L549.631,824.208L549.631,808.842L550.262,808.298Z" style="fill:rgb(39,123,122);"/>
                <g transform="matrix(0.962943,-0.832643,0.654074,0.75643,-136.155,547.156)">
                    <path d="M381.032,636.064L266.493,635.836L266.493,647.476L376.739,647.476L381.032,636.064Z" style="fill:rgb(186,57,36);"/>
                </g>
                <g transform="matrix(0.967971,0.83553,-0.653421,0.756995,807.632,10.0355)">
                    <path d="M376.739,635.836L262.992,635.748L266.493,647.476L376.739,647.476L376.739,635.836Z" style="fill:rgb(186,57,36);"/>
                </g>
            </g>
            <g transform="matrix(0.899378,0,0,0.899378,248.443,228.159)">
                <g transform="matrix(1,0,0,1,1.13687e-13,19.6376)">
                    <path d="M467.289,625.407L418.538,625.407C418.538,611.954 429.46,601.031 442.913,601.031C456.367,601.031 467.289,611.954 467.289,625.407Z" style="fill:white;"/>
                </g>
                <g transform="matrix(0.832249,0,0,0.746855,74.7881,175.755)">
                    <path d="M467.289,625.407L418.538,625.407C418.538,611.954 429.46,601.031 442.913,601.031C456.367,601.031 467.289,611.954 467.289,625.407Z" style="fill:rgb(144,195,230);"/>
                </g>
                <g transform="matrix(1,0,0,1,1.13687e-13,19.6376)">
                    <path d="M433.497,607.318C436.427,605.842 439.806,605.001 443.403,605.001C454.35,605.001 463.284,612.799 463.676,622.539C460.339,613.051 451.295,606.243 440.673,606.243C438.176,606.243 435.766,606.619 433.497,607.318Z" style="fill:rgb(72,102,122);"/>
                </g>
            </g>
            <g transform="matrix(1.25671,0,0,1.25671,272.485,142.775)">
                <g transform="matrix(0.795729,0,0,0.795729,-216.824,-113.61)">
                    <path d="M690.636,937.989L643.138,937.989L602.944,937.989L602.944,850.415L690.636,850.415L690.636,937.989Z" style="fill:white;"/>
                </g>
                <g transform="matrix(0.972155,0,0,0.881304,134.976,-281.071)">
                    <rect x="137.69" y="964.121" width="26.787" height="29.549" style="fill:rgb(144,195,230);"/>
                </g>
                <g transform="matrix(1,0,0,1,132.519,-201.674)">
                    <path d="M162.355,796.329L158.153,796.329L158.153,774.199L136.313,774.199L136.313,770.288L162.355,770.288L162.355,796.329Z" style="fill:rgb(85,118,140);"/>
                </g>
                <g transform="matrix(0.972155,0,0,0.881304,134.976,-248.867)">
                    <rect x="137.69" y="964.121" width="26.787" height="29.549" style="fill:rgb(144,195,230);"/>
                </g>
                <g transform="matrix(1,0,0,1,132.519,-169.47)">
                    <path d="M162.355,796.329L158.153,796.329L158.153,774.199L136.313,774.199L136.313,770.288L162.355,770.288L162.355,796.329Z" style="fill:rgb(85,118,140);"/>
                </g>
                <g transform="matrix(0.972155,0,0,0.881304,166.96,-281.071)">
                    <rect x="137.69" y="964.121" width="26.787" height="29.549" style="fill:rgb(144,195,230);"/>
                </g>
                <g transform="matrix(1,0,0,1,164.503,-201.674)">
                    <path d="M162.355,796.329L158.153,796.329L158.153,774.199L136.313,774.199L136.313,770.288L162.355,770.288L162.355,796.329Z" style="fill:rgb(85,118,140);"/>
                </g>
                <g transform="matrix(0.972155,0,0,0.881304,166.96,-248.867)">
                    <rect x="137.69" y="964.121" width="26.787" height="29.549" style="fill:rgb(144,195,230);"/>
                </g>
                <g transform="matrix(1,0,0,1,164.503,-169.47)">
                    <path d="M162.355,796.329L158.153,796.329L158.153,774.199L136.313,774.199L136.313,770.288L162.355,770.288L162.355,796.329Z" style="fill:rgb(85,118,140);"/>
                </g>
            </g>
        </g>
        <g>
            <g>
                <g transform="matrix(1,0,0,13.0776,0,-14960.6)">
                    <rect x="212.433" y="1219.64" width="868.713" height="19.062" style="fill:rgb(53,148,145);"/>
                </g>
                <g transform="matrix(1,0,0,0.852601,0,182.583)">
                    <rect x="212.433" y="1219.64" width="868.713" height="19.062" style="fill:rgb(69,63,37);"/>
                </g>
                <path d="M549.631,989.413L549.631,1006.43L212.433,1006.43L212.433,989.413L549.631,989.413ZM1081.15,989.413L1081.15,1006.43L743.948,1006.43L743.948,989.413L1081.15,989.413Z" style="fill:rgb(39,123,122);"/>
            </g>
            <g>
                <g transform="matrix(1,0,0,1,10.2333,-0.0686211)">
                    <path d="M577.675,1040.45C577.675,1007.82 604.059,981.326 636.556,981.326C669.054,981.326 695.438,1007.82 695.438,1040.45L695.438,1224.34L577.675,1224.34L577.675,1040.45Z" style="fill:rgb(69,63,37);"/>
                </g>
                <g transform="matrix(0.802352,0,0,0.944907,136.22,65.562)">
                    <path d="M577.675,1040.45C577.675,1007.82 604.059,981.326 636.556,981.326C669.054,981.326 695.438,1007.82 695.438,1040.45L695.438,1224.34L577.675,1224.34L577.675,1040.45Z" style="fill:rgb(109,97,65);"/>
                </g>
                <rect x="593.98" y="1048.66" width="106" height="7.688" style="fill:rgb(69,63,37);"/>
                <g transform="matrix(1,0,0,1,0,118.269)">
                    <rect x="593.98" y="1048.66" width="106" height="7.688" style="fill:rgb(69,63,37);"/>
                </g>
                <g transform="matrix(1,0,0,1,0,59.2141)">
                    <rect x="593.98" y="1048.66" width="106" height="7.688" style="fill:rgb(69,63,37);"/>
                </g>
                <g transform="matrix(1.01974e-16,-1.66536,1,6.12323e-17,-405.524,2217.1)">
                    <rect x="593.98" y="1048.66" width="106" height="7.688" style="fill:rgb(69,63,37);"/>
                </g>
            </g>
            <g>
                <g transform="matrix(0.986041,0,0,1,-9.82041,0.0269393)">
                    <rect x="249.524" y="1033.47" width="275.499" height="139.306" style="fill:white;"/>
                </g>
                <g transform="matrix(0.900298,0,0,0.830892,23.3855,186.574)">
                    <rect x="249.524" y="1033.47" width="275.499" height="139.306" style="fill:rgb(144,195,230);"/>
                </g>
                <rect x="455.724" y="1045.28" width="5.429" height="115.748" style="fill:rgb(117,159,187);"/>
                <rect x="490.634" y="1045.28" width="5.429" height="115.748" style="fill:rgb(117,159,187);"/>
                <rect x="419.793" y="1045.28" width="5.429" height="115.748" style="fill:rgb(117,159,187);"/>
                <rect x="384.146" y="1045.28" width="5.429" height="115.748" style="fill:rgb(117,159,187);"/>
                <rect x="349.241" y="1045.28" width="5.429" height="115.748" style="fill:rgb(117,159,187);"/>
                <rect x="313.904" y="1045.28" width="5.429" height="115.748" style="fill:rgb(117,159,187);"/>
                <rect x="278.036" y="1045.28" width="5.429" height="115.748" style="fill:rgb(117,159,187);"/>
                <rect x="248.031" y="1105.56" width="248.031" height="5.429" style="fill:rgb(117,159,187);"/>
                <rect x="248.031" y="1045.28" width="248.031" height="5.429" style="fill:rgb(117,159,187);"/>
                <g transform="matrix(1,0,0,1.01696,5.31049,-19.8882)">
                    <rect x="278.154" y="1045.28" width="5.429" height="122.791" style="fill:white;"/>
                </g>
                <g transform="matrix(1,0,0,1.01696,40.7436,-19.8882)">
                    <rect x="278.154" y="1045.28" width="5.429" height="122.791" style="fill:white;"/>
                </g>
                <g transform="matrix(1,0,0,1.01696,76.1766,-19.8882)">
                    <rect x="278.154" y="1045.28" width="5.429" height="122.791" style="fill:white;"/>
                </g>
                <g transform="matrix(1,0,0,1.01696,111.61,-19.8882)">
                    <rect x="278.154" y="1045.28" width="5.429" height="122.791" style="fill:white;"/>
                </g>
                <g transform="matrix(1,0,0,1.01696,147.043,-19.8882)">
                    <rect x="278.154" y="1045.28" width="5.429" height="122.791" style="fill:white;"/>
                </g>
                <g transform="matrix(1,0,0,1.01696,182.476,-19.8882)">
                    <rect x="278.154" y="1045.28" width="5.429" height="122.791" style="fill:white;"/>
                </g>
                <g transform="matrix(6.12323e-17,-1,2.11795,1.29687e-16,-1969.73,1384.02)">
                    <rect x="278.154" y="1045.28" width="5.429" height="122.791" style="fill:white;"/>
                </g>
            </g>
            <g transform="matrix(1,0,0,1,549.213,0)">
                <g transform="matrix(0.986041,0,0,1,-9.82041,0.0269393)">
                    <rect x="249.524" y="1033.47" width="275.499" height="139.306" style="fill:white;"/>
                </g>
                <g transform="matrix(0.900298,0,0,0.830892,23.3855,186.574)">
                    <rect x="249.524" y="1033.47" width="275.499" height="139.306" style="fill:rgb(144,195,230);"/>
                </g>
                <rect x="455.724" y="1045.28" width="5.429" height="115.748" style="fill:rgb(117,159,187);"/>
                <rect x="490.634" y="1045.28" width="5.429" height="115.748" style="fill:rgb(117,159,187);"/>
                <rect x="419.793" y="1045.28" width="5.429" height="115.748" style="fill:rgb(117,159,187);"/>
                <rect x="384.146" y="1045.28" width="5.429" height="115.748" style="fill:rgb(117,159,187);"/>
                <rect x="349.241" y="1045.28" width="5.429" height="115.748" style="fill:rgb(117,159,187);"/>
                <rect x="313.904" y="1045.28" width="5.429" height="115.748" style="fill:rgb(117,159,187);"/>
                <rect x="278.036" y="1045.28" width="5.429" height="115.748" style="fill:rgb(117,159,187);"/>
                <rect x="248.031" y="1105.56" width="248.031" height="5.429" style="fill:rgb(117,159,187);"/>
                <rect x="248.031" y="1045.28" width="248.031" height="5.429" style="fill:rgb(117,159,187);"/>
                <g transform="matrix(1,0,0,1.01696,5.31049,-19.8882)">
                    <rect x="278.154" y="1045.28" width="5.429" height="122.791" style="fill:white;"/>
                </g>
                <g transform="matrix(1,0,0,1.01696,40.7436,-19.8882)">
                    <rect x="278.154" y="1045.28" width="5.429" height="122.791" style="fill:white;"/>
                </g>
                <g transform="matrix(1,0,0,1.01696,76.1766,-19.8882)">
                    <rect x="278.154" y="1045.28" width="5.429" height="122.791" style="fill:white;"/>
                </g>
                <g transform="matrix(1,0,0,1.01696,111.61,-19.8882)">
                    <rect x="278.154" y="1045.28" width="5.429" height="122.791" style="fill:white;"/>
                </g>
                <g transform="matrix(1,0,0,1.01696,147.043,-19.8882)">
                    <rect x="278.154" y="1045.28" width="5.429" height="122.791" style="fill:white;"/>
                </g>
                <g transform="matrix(1,0,0,1.01696,182.476,-19.8882)">
                    <rect x="278.154" y="1045.28" width="5.429" height="122.791" style="fill:white;"/>
                </g>
                <g transform="matrix(6.12323e-17,-1,2.11795,1.29687e-16,-1969.73,1384.02)">
                    <rect x="278.154" y="1045.28" width="5.429" height="122.791" style="fill:white;"/>
                </g>
            </g>
        </g>
    </g>
    <g transform="matrix(0.227184,0,0,0.227184,1146.66,808.59)">
        <g>
            <path d="M775.923,1417.32L411.15,1417.32L458.116,1383.31L728.957,1383.31L775.923,1417.32Z" style="fill:rgb(0,21,56);"/>
            <g transform="matrix(5.37119,0,0,0.0480607,-2582.16,1320.01)">
                <rect x="565.514" y="1177.86" width="51.466" height="222.456" style="fill:rgb(0,21,56);"/>
            </g>
            <g transform="matrix(5.37119,0,0,0.0480607,-2582.16,1306.77)">
                <rect x="565.514" y="1177.86" width="51.466" height="222.456" style="fill:rgb(0,21,56);"/>
            </g>
            <g transform="matrix(5.67224,0,0,0.0499479,-2760.16,1309.68)">
                <rect x="565.514" y="1177.86" width="51.466" height="222.456" style="fill:rgb(0,21,56);"/>
            </g>
        </g>
        <g transform="matrix(0.524704,0,0,1.51376,284.361,-725.989)">
            <rect x="537.155" y="860.052" width="104.164" height="527.263" style="fill:rgb(0,21,56);"/>
        </g>
        <g>
            <g transform="matrix(1,0,0,1,-5.89166,-8.90531)">
                <rect x="489.605" y="708.661" width="219.056" height="17.811" style="fill:rgb(0,21,56);"/>
            </g>
            <g transform="matrix(1,0,0,1,248.224,-37.06)">
                <circle cx="225.374" cy="745.721" r="18.573" style="fill:rgb(0,21,56);"/>
            </g>
            <g transform="matrix(1,0,0,1,487.512,-37.06)">
                <circle cx="225.374" cy="745.721" r="18.573" style="fill:rgb(0,21,56);"/>
            </g>
        </g>
        <g transform="matrix(1,0,0,1,0.156901,205.895)">
            <g transform="matrix(1.52602,0,0,2.02202,-312.3,-374.621)">
                <path d="M545.89,287.021L564.828,366.45L622.068,367.279L625.831,361.119C625.831,361.119 641.42,290.514 641.907,288.308C641.91,288.294 641.906,288.279 641.895,288.268C641.884,288.256 641.867,288.248 641.849,288.246C640.566,288.087 622.068,285.787 622.068,285.787L589.834,285.787L545.89,287.021" style="fill:rgb(243,193,6);stroke:black;stroke-width:2.46px;"/>
            </g>
            <g transform="matrix(1.54173,0,0,1.50557,-317.737,-181.877)">
                <rect x="588.491" y="255.799" width="5.045" height="109.445" style="fill:rgb(0,21,56);"/>
            </g>
            <g transform="matrix(1.52602,0,0,2.02202,-312.3,-374.621)">
                <rect x="542.214" y="285.787" width="102.465" height="2.468" style="fill:rgb(0,21,56);"/>
            </g>
            <g transform="matrix(1.37916,0,0,2.02202,-316.344,-226.471)">
                <path d="M602.982,212.519C620.416,208.063 639.571,205.599 659.669,205.599C679.767,205.599 698.923,208.063 716.357,212.519L715.752,213.112L603.904,213.128L602.982,212.519Z" style="fill:rgb(0,21,56);"/>
            </g>
            <g transform="matrix(1.50519,-0.442152,0.245931,1.46989,-433.57,89.6838)">
                <rect x="588.491" y="255.799" width="5.045" height="109.445" style="fill:rgb(0,21,56);"/>
            </g>
            <g transform="matrix(1.5052,0.442068,-0.245885,1.4699,-159.003,-432.906)">
                <rect x="588.491" y="255.799" width="5.045" height="109.445" style="fill:rgb(0,21,56);"/>
            </g>
            <g transform="matrix(0.474377,0,0,1,309.096,-347.542)">
                <rect x="489.605" y="708.661" width="219.056" height="17.811" style="fill:rgb(0,21,56);"/>
            </g>
        </g>
    </g>
    <g transform="matrix(1.01106,0,0,1.06077,-0.25571,-68.7032)">
        <rect x="23.129" y="1130.58" width="1355.18" height="18.886" style="fill:rgb(235,235,235);"/>
    </g>
</svg>
