<?xml version="1.0" encoding="UTF-8"?>
<!DOCTYPE svg PUBLIC "-//W3C//DTD SVG 1.1//EN" "http://www.w3.org/Graphics/SVG/1.1/DTD/svg11.dtd">
<svg version="1.1" xmlns="http://www.w3.org/2000/svg" xmlns:xlink="http://www.w3.org/1999/xlink" x="0" y="0" width="262.296" height="200.632" viewBox="0, 0, 262.296, 200.632">
  <g id="Layer_1">
    <path d="M76.159,187.71 C76.825,190.377 72.158,194.043 79.492,195.71 C86.825,197.377 115.159,195.376 120.492,194.71 C125.825,194.044 153.826,193.71 159.159,195.71 C164.492,197.71 179.159,195.043 180.826,192.377 C182.492,189.71 181.826,188.044 181.826,187.044" fill="#7ECAD3" id="path833"/>
    <path d="M76.159,187.71 C76.825,190.377 72.158,194.043 79.492,195.71 C86.825,197.377 115.159,195.376 120.492,194.71 C125.825,194.044 153.826,193.71 159.159,195.71 C164.492,197.71 179.159,195.043 180.826,192.377 C182.492,189.71 181.826,188.044 181.826,187.044" fill-opacity="0" stroke="#1A1919" stroke-width="1.5" stroke-linecap="round" stroke-linejoin="round" id="path835"/>
    <path d="M21.992,146.627 C20.242,149.377 20.742,152.127 22.492,153.627 C24.474,155.325 30.742,160.877 31.992,154.127 C33.242,147.377 27.742,140.877 21.992,146.627" fill="#7ECAD3" id="path837"/>
    <path d="M21.992,146.627 C20.242,149.377 20.742,152.127 22.492,153.627 C24.474,155.325 30.742,160.877 31.992,154.127 C33.242,147.377 27.742,140.877 21.992,146.627 z" fill-opacity="0" stroke="#1A1919" stroke-width="1.5" stroke-linecap="round" stroke-linejoin="round" id="path839"/>
    <path d="M28.992,148.127 C28.992,149.163 27.873,150.002 26.492,150.002 C25.111,150.002 23.992,149.163 23.992,148.127 C23.992,147.09 25.111,146.252 26.492,146.252 C27.873,146.252 28.992,147.09 28.992,148.127" fill="#FFFFFE" id="path841"/>
    <path d="M79.492,191.127 C49.992,198.377 34.992,185.127 38.242,174.627 C41.492,164.127 62.242,174.377 65.492,173.627 C68.742,172.877 69.492,172.877 54.492,162.127 C39.492,151.377 33.992,136.127 41.242,128.627 C48.492,121.127 60.242,129.627 64.992,134.377 C69.742,139.127 74.742,147.377 79.742,148.377 C79.742,148.377 220.742,134.127 222.492,133.127 C224.242,132.127 228.242,127.627 232.742,126.127 C237.242,124.627 240.992,125.127 242.492,128.127 C244.492,132.127 237.992,135.377 235.742,137.627 C237.742,137.627 241.492,139.627 241.992,142.627 C242.492,145.627 239.992,147.127 232.742,154.627 C225.492,162.127 225.492,163.127 227.742,165.377 C229.992,167.627 249.992,167.127 248.992,174.877 C247.992,182.627 228.992,182.877 222.242,182.127 C215.492,181.377 211.492,184.627 210.742,185.627 C209.242,190.127 199.492,195.377 190.742,195.127 C181.992,194.877 174.992,191.127 172.492,190.377" fill="#97D2D8" id="path843"/>
    <path d="M79.492,191.127 C49.992,198.377 34.992,185.127 38.242,174.627 C41.492,164.127 62.242,174.377 65.492,173.627 C68.742,172.877 69.492,172.877 54.492,162.127 C39.492,151.377 33.992,136.127 41.242,128.627 C48.492,121.127 60.242,129.627 64.992,134.377 C69.742,139.127 74.742,147.377 79.742,148.377 C79.742,148.377 220.742,134.127 222.492,133.127 C224.242,132.127 228.242,127.627 232.742,126.127 C237.242,124.627 240.992,125.127 242.492,128.127 C244.492,132.127 237.992,135.377 235.742,137.627 C237.742,137.627 241.492,139.627 241.992,142.627 C242.492,145.627 239.992,147.127 232.742,154.627 C225.492,162.127 225.492,163.127 227.742,165.377 C229.992,167.627 249.992,167.127 248.992,174.877 C247.992,182.627 228.992,182.877 222.242,182.127 C215.492,181.377 211.492,184.627 210.742,185.627 C209.242,190.127 199.492,195.377 190.742,195.127 C181.992,194.877 174.992,191.127 172.492,190.377 M185.492,170.377 C191.492,167.877 204.242,164.877 208.992,170.377 C213.742,175.877 212.492,180.627 210.742,185.627 M220.992,145.377 C227.242,138.627 233.992,137.627 236.492,137.877" fill-opacity="0" stroke="#1A1919" stroke-width="1.5" stroke-linecap="round" stroke-linejoin="round" id="path845"/>
    <path d="M250.242,133.877 C249.992,130.127 258.992,126.127 261.242,129.877 C263.492,133.627 253.742,136.627 250.242,133.877" fill="#7ECAD3" id="path847"/>
    <path d="M250.242,133.877 C249.992,130.127 258.992,126.127 261.242,129.877 C263.492,133.627 253.742,136.627 250.242,133.877 z" fill-opacity="0" stroke="#1A1919" stroke-width="1.5" stroke-linecap="round" stroke-linejoin="round" id="path849"/>
    <path d="M246.492,152.377 C242.885,151.895 248.742,145.627 250.242,147.627 C251.742,149.627 250.242,152.877 246.492,152.377" fill="#7ECAD3" id="path851"/>
    <path d="M246.492,152.377 C242.885,151.895 248.742,145.627 250.242,147.627 C251.742,149.627 250.242,152.877 246.492,152.377 z" fill-opacity="0" stroke="#1A1919" stroke-width="1.5" stroke-linecap="round" stroke-linejoin="round" id="path853"/>
    <path d="M166.242,50.126 C163.467,49.793 159.492,58.126 163.492,60.126 C167.492,62.126 172.492,50.876 166.242,50.126" fill="#7ECAD3" id="path855"/>
    <path d="M166.242,50.126 C163.467,49.793 159.492,58.126 163.492,60.126 C167.492,62.126 172.492,50.876 166.242,50.126 z" fill-opacity="0" stroke="#1A1919" stroke-width="1.5" stroke-linecap="round" stroke-linejoin="round" id="path857"/>
    <path d="M168.492,51.626 C167.372,50.879 165.992,52.626 166.992,54.376 C167.992,56.126 168.992,55.626 169.242,54.376 C169.492,53.126 169.242,52.126 168.492,51.626" fill="#FFFFFE" id="path859"/>
    <path d="M232.492,143.044 C231.158,143.044 207.159,160.71 208.826,164.377 C210.492,168.044 214.492,170.044 218.492,166.71 C222.492,163.377 235.158,150.711 237.492,147.044 C239.826,143.377 240.158,138.044 232.492,143.044" fill="#4AAEAF" id="path861"/>
    <path d="M65.161,146.711 C64.086,146.711 63.046,146.13 62.508,145.114 C60.306,140.956 54.419,136.863 52.467,136.307 C51.242,136.575 49.932,136.053 49.253,134.92 C48.401,133.499 48.862,131.657 50.282,130.803 C51.284,130.203 52.522,130.102 53.962,130.504 C57.597,131.516 64.799,136.618 67.81,142.306 C68.586,143.77 68.027,145.587 66.563,146.362 C66.115,146.598 65.635,146.711 65.161,146.711" fill="#FFFFFE" id="path863"/>
    <path d="M73.827,154.877 C73.048,154.877 72.279,154.512 71.791,153.83 L70.124,151.497 C69.322,150.372 69.582,148.811 70.706,148.008 C71.829,147.206 73.39,147.466 74.194,148.59 L75.86,150.923 C76.662,152.047 76.402,153.608 75.279,154.411 C74.838,154.725 74.33,154.877 73.827,154.877" fill="#FFFFFE" id="path865"/>
    <path d="M57.826,186.71 C65.613,188.17 80.825,189.377 86.158,188.377 C91.492,187.377 113.492,185.044 120.825,185.044 C128.159,185.044 157.158,189.71 157.158,189.71 C157.488,190.747 169.44,181.192 128.492,178.044 C119.825,177.377 94.159,177.71 85.159,179.71 C76.159,181.71 62.871,179.133 57.159,177.044 C43.492,172.044 36.492,182.71 57.826,186.71" fill="#4AAEAF" id="path867"/>
    <path d="M222.912,150.444 C226.996,146.68 231.088,143.548 234.159,143.71 M211.159,161.377 C213.017,160.035 215.322,157.797 217.808,155.359" fill-opacity="0" stroke="#FFFFFE" stroke-width="5" stroke-linecap="round" stroke-linejoin="round" id="path869"/>
    <path d="M260.492,130.71 C260.492,131.63 259.672,132.377 258.659,132.377 C257.646,132.377 256.826,131.63 256.826,130.71 C256.826,129.79 257.646,129.044 258.659,129.044 C259.672,129.044 260.492,129.79 260.492,130.71" fill="#FFFFFE" id="path871"/>
    <path d="M215.085,149.177 C208.496,160.368 191.332,158.053 173.423,148.005 C155.513,137.956 143.328,121.669 151.074,111.246 C158.113,101.775 175.148,105.371 193.056,115.419 C210.967,125.467 220.959,139.202 215.085,149.177" fill="#FBCF3E" id="path873"/>
    <path d="M215.085,149.177 C208.496,160.368 191.332,158.053 173.423,148.005 C155.513,137.956 143.328,121.669 151.074,111.246 C158.113,101.775 175.148,105.371 193.056,115.419 C210.967,125.467 220.959,139.202 215.085,149.177 z" fill-opacity="0" stroke="#1A1919" stroke-width="1.5" stroke-linecap="round" stroke-linejoin="round" id="path875"/>
    <path d="M181.659,159.044 C181.659,159.044 180.158,163.377 176.492,163.71 C172.826,164.044 171.659,158.377 172.159,155.21 C172.659,152.044 173.158,148.544 173.492,148.044 C173.826,147.544 174.992,146.044 174.992,146.044 C174.992,146.044 178.992,146.877 179.492,146.877 C179.992,146.877 182.826,153.544 181.659,159.044" fill="#F4BB9D" id="path877"/>
    <path d="M181.659,159.044 C181.659,159.044 180.158,163.377 176.492,163.71 C172.826,164.044 171.659,158.377 172.159,155.21 C172.659,152.044 173.158,148.544 173.492,148.044 C173.826,147.544 174.992,146.044 174.992,146.044 C174.992,146.044 178.992,146.877 179.492,146.877 C179.992,146.877 182.826,153.544 181.659,159.044 z" fill-opacity="0" stroke="#1A1919" stroke-width="1.5" stroke-linecap="round" stroke-linejoin="round" id="path879"/>
    <path d="M171.867,158.877 C172.2,158.377 179.659,159.377 181.659,160.377 L182.326,156.21 C182.326,156.21 173.992,154.21 172.159,155.21 C170.326,156.21 171.867,158.877 171.867,158.877" fill="#E2607D" id="path881"/>
    <path d="M171.867,158.877 C172.2,158.377 179.659,159.377 181.659,160.377 L182.326,156.21 C182.326,156.21 173.992,154.21 172.159,155.21 C170.326,156.21 171.867,158.877 171.867,158.877 z" fill-opacity="0" stroke="#1A1919" stroke-width="1.5" stroke-linecap="round" stroke-linejoin="round" id="path883"/>
    <path d="M232.826,94.21 C233.992,94.21 236.325,97.876 235.492,100.044 C236.659,100.044 238.825,102.544 238.492,104.377 C239.326,103.877 241.492,104.876 241.326,106.544 C241.326,106.544 245.492,106.71 246.326,107.377 L243.826,109.544 L244.659,111.877 C244.659,111.877 241.992,111.877 241.492,111.377 C241.326,111.71 240.825,113.21 239.992,113.544 C238.992,113.71 238.492,111.21 238.826,109.877 C238.326,109.877 236.658,108.877 236.492,107.877 C233.492,107.21 232.826,105.378 232.826,104.71 C232.326,104.544 228.826,103.21 228.826,103.21 L232.826,94.21" fill="#2D2118" id="path885"/>
    <path d="M232.826,94.21 C233.992,94.21 236.325,97.876 235.492,100.044 C236.659,100.044 238.825,102.544 238.492,104.377 C239.326,103.877 241.492,104.876 241.326,106.544 C241.326,106.544 245.492,106.71 246.326,107.377 L243.826,109.544 L244.659,111.877 C244.659,111.877 241.992,111.877 241.492,111.377 C241.326,111.71 240.825,113.21 239.992,113.544 C238.992,113.71 238.492,111.21 238.826,109.877 C238.326,109.877 236.658,108.877 236.492,107.877 C233.492,107.21 232.826,105.378 232.826,104.71 C232.326,104.544 228.826,103.21 228.826,103.21 z" fill-opacity="0" stroke="#1A1919" stroke-width="1.5" stroke-linecap="round" stroke-linejoin="round" id="path887"/>
    <path d="M183.649,69.05 C182.544,68.534 181.301,68.645 180.224,69.211 C179.867,68.87 179.428,68.596 178.917,68.419 C177.598,67.964 176.137,68.264 175.01,69.085 C173.721,68.543 171.765,68.234 170.242,69.376 C170.242,69.376 164.992,65.626 163.992,65.876 C162.992,66.126 164.742,68.876 164.742,68.876 C163.992,69.376 162.242,70.126 162.742,70.876 C163.242,71.626 164.742,72.376 164.742,72.376 C164.742,72.376 163.242,76.126 164.492,76.376 C165.742,76.626 168.992,74.626 169.742,74.126 C169.957,74.556 172.386,75.168 174.017,74.856 C174.414,75.327 174.928,75.711 175.567,75.933 C176.475,76.248 177.449,76.189 178.338,75.865 C178.706,76.43 179.2,76.905 179.835,77.202 C181.836,78.139 184.311,77.073 185.365,74.823 C186.418,72.571 185.65,69.987 183.649,69.05" fill="#2D2118" id="path889"/>
    <path d="M183.649,69.05 C182.544,68.534 181.301,68.645 180.224,69.211 C179.867,68.87 179.428,68.596 178.917,68.419 C177.598,67.964 176.137,68.264 175.01,69.085 C173.721,68.543 171.765,68.234 170.242,69.376 C170.242,69.376 164.992,65.626 163.992,65.876 C162.992,66.126 164.742,68.876 164.742,68.876 C163.992,69.376 162.242,70.126 162.742,70.876 C163.242,71.626 164.742,72.376 164.742,72.376 C164.742,72.376 163.242,76.126 164.492,76.376 C165.742,76.626 168.992,74.626 169.742,74.126 C169.957,74.556 172.386,75.168 174.017,74.856 C174.414,75.327 174.928,75.711 175.567,75.933 C176.475,76.248 177.449,76.189 178.338,75.865 C178.706,76.43 179.2,76.905 179.835,77.202 C181.836,78.139 184.311,77.073 185.365,74.823 C186.418,72.571 185.65,69.987 183.649,69.05 z" fill-opacity="0" stroke="#1A1919" stroke-width="1.5" stroke-linecap="round" stroke-linejoin="round" id="path891"/>
    <path d="M153.992,115.877 C153.992,114.544 158.221,103.501 159.992,101.877 C161.992,100.044 164.826,99.71 164.826,99.71 C176.326,97.877 187.492,104.71 189.158,106.21 C189.158,106.21 205.158,116.21 208.492,116.877 C211.826,117.544 219.326,124.377 219.992,125.377 L220.658,124.21 C219.825,123.71 219.326,121.544 220.158,119.544 C220.992,117.544 222.992,116.377 223.992,116.71 C224.326,116.21 224.992,116.21 224.992,116.21 C230.492,114.71 232.633,119.545 232.658,119.877 C232.826,122.044 232.805,123.879 232.992,125.044 C233.659,129.21 230.676,130.73 229.659,131.544 C228.826,132.21 221.826,135.71 218.826,135.044 C215.826,134.378 209.159,128.544 207.826,126.377 C206.492,129.71 204.658,134.21 204.158,134.544 C204.158,134.544 171.826,118.21 173.158,115.21 C174.492,112.21 177.492,110.044 177.492,110.044 C175.992,109.876 166.492,108.044 164.159,109.044" fill="#F4BB9D" id="path893"/>
    <path d="M153.992,115.877 C153.992,114.544 158.221,103.501 159.992,101.877 C161.992,100.044 164.826,99.71 164.826,99.71 C176.326,97.877 187.492,104.71 189.158,106.21 C189.158,106.21 205.158,116.21 208.492,116.877 C211.826,117.544 219.326,124.377 219.992,125.377 L220.658,124.21 C219.825,123.71 219.326,121.544 220.158,119.544 C220.992,117.544 222.992,116.377 223.992,116.71 C224.326,116.21 224.992,116.21 224.992,116.21 C230.492,114.71 232.633,119.545 232.658,119.877 C232.826,122.044 232.805,123.879 232.992,125.044 C233.659,129.21 230.676,130.73 229.659,131.544 C228.826,132.21 221.826,135.71 218.826,135.044 C215.826,134.378 209.159,128.544 207.826,126.377 C206.492,129.71 204.658,134.21 204.158,134.544 C204.158,134.544 171.826,118.21 173.158,115.21 C174.492,112.21 177.492,110.044 177.492,110.044 C175.992,109.876 166.492,108.044 164.159,109.044" fill-opacity="0" stroke="#1A1919" stroke-width="1.5" stroke-linecap="round" stroke-linejoin="round" id="path895"/>
    <path d="M229.33,100.579 C231.83,99.079 234.997,103.079 232.497,106.579 C229.997,110.079 224.996,112.246 223.83,110.913 L229.33,100.579" fill="#F4BB9D" id="path897"/>
    <path d="M229.33,100.579 C231.83,99.079 234.997,103.079 232.497,106.579 C229.997,110.079 224.996,112.246 223.83,110.913 z" fill-opacity="0" stroke="#1A1919" stroke-width="1.5" stroke-linecap="round" stroke-linejoin="round" id="path899"/>
    <path d="M181.242,75.626 C182.742,72.126 191.875,61.521 201.742,59.876 C209.242,58.626 216.742,61.876 221.992,66.376 C225.742,67.876 238.742,75.126 234.242,90.377 C233.742,92.127 231.295,97.134 228.379,101.377 C225.629,105.377 187.742,91.627 185.242,87.626 C182.742,83.626 181.242,76.876 181.242,75.626" fill="#2D2118" id="path901"/>
    <path d="M181.242,75.626 C182.742,72.126 191.875,61.521 201.742,59.876 C209.242,58.626 216.742,61.876 221.992,66.376 C225.742,67.876 238.742,75.126 234.242,90.377 C233.742,92.127 231.295,97.134 228.379,101.377 C225.629,105.377 187.742,91.627 185.242,87.626 C182.742,83.626 181.242,76.876 181.242,75.626 z" fill-opacity="0" stroke="#1A1919" stroke-width="1.5" stroke-linecap="round" stroke-linejoin="round" id="path903"/>
    <path d="M174.992,146.044 C177.826,147.211 185.992,148.877 191.492,147.044 C200.825,145.544 204.826,134.544 205.658,132.544 C205.658,132.544 205.159,131.43 205.159,130.377 C205.159,129.044 205.279,126.122 206.492,123.21 C207.326,121.21 209.492,116.544 209.826,116.21 L205.992,113.544 L205.326,114.877 C203.659,118.21 198.213,124.948 192.326,121.71 C185.658,118.044 189.658,109.21 190.658,106.877 L186.992,104.877 C186.992,105.71 180.492,116.044 173.158,115.21 C170.492,117.544 167.326,122.377 166.158,126.71 C165.826,128.377 160.992,135.544 174.992,146.044" fill="#DB3A87" id="path905"/>
    <path d="M174.992,146.044 C177.826,147.211 185.992,148.877 191.492,147.044 C200.825,145.544 204.826,134.544 205.658,132.544 C205.658,132.544 205.159,131.43 205.159,130.377 C205.159,129.044 205.279,126.122 206.492,123.21 C207.326,121.21 209.492,116.544 209.826,116.21 L205.992,113.544 L205.326,114.877 C203.659,118.21 198.213,124.948 192.326,121.71 C185.658,118.044 189.658,109.21 190.658,106.877 L186.992,104.877 C186.992,105.71 180.492,116.044 173.158,115.21 C170.492,117.544 167.326,122.377 166.158,126.71 C165.826,128.377 160.992,135.544 174.992,146.044 z" fill-opacity="0" stroke="#1A1919" stroke-width="1.5" stroke-linecap="round" stroke-linejoin="round" id="path907"/>
    <path d="M184.526,77.155 C183.026,73.905 177.742,74.626 176.242,78.876 C174.742,83.126 177.443,88.905 179.609,89.239 L184.526,77.155" fill="#F4BB9D" id="path909"/>
    <path d="M184.526,77.155 C183.026,73.905 177.742,74.626 176.242,78.876 C174.742,83.126 177.443,88.905 179.609,89.239 z" fill-opacity="0" stroke="#1A1919" stroke-width="1.5" stroke-linecap="round" stroke-linejoin="round" id="path911"/>
    <path d="M193.916,69.948 C190.664,71.249 187.704,73.31 185.029,77.534 C180.91,84.037 178.164,88.133 178.742,93.627 C179.242,98.377 182.492,103.044 191.992,112.377 C192.992,113.877 196.659,116.044 200.659,116.044 C208.437,115.899 211.992,116.377 218.742,114.377 C222.305,113.321 226.492,110.877 228.992,100.877 C229.896,98.126 230.763,94.007 231.414,89.239 L229.742,83.626 C229.742,83.626 216.909,73.876 215.742,73.376 C214.575,72.876 195.783,68.131 194.783,69.297 L193.916,69.948" fill="#F4BB9D" id="path913"/>
    <path d="M193.916,69.948 C190.664,71.249 187.704,73.31 185.029,77.534 C180.91,84.037 178.164,88.133 178.742,93.627 C179.242,98.377 182.492,103.044 191.992,112.377 C192.992,113.877 196.659,116.044 200.659,116.044 C208.437,115.899 211.992,116.377 218.742,114.377 C222.305,113.321 226.492,110.877 228.992,100.877 C229.896,98.126 230.763,94.007 231.414,89.239 L229.742,83.626 C229.742,83.626 216.909,73.876 215.742,73.376 C214.575,72.876 195.783,68.131 194.783,69.297 z M227.626,88.174 C228.293,88.007 228.959,89.007 227.959,93.007" fill-opacity="0" stroke="#1A1919" stroke-width="1.5" stroke-linecap="round" stroke-linejoin="round" id="path915"/>
    <path d="M230.159,89.044 C231.159,90.377 232.659,93.377 233.326,94.544 L235.314,89.889 C235.314,89.889 233.43,86.971 232.93,86.637 L230.159,89.044" fill="#E36D9F" id="path917"/>
    <path d="M230.159,89.044 C231.159,90.377 232.659,93.377 233.326,94.544 L235.314,89.889 C235.314,89.889 233.43,86.971 232.93,86.637 z" fill-opacity="0" stroke="#1A1919" stroke-width="1.5" stroke-linecap="round" stroke-linejoin="round" id="path919"/>
    <path d="M214.659,73.21 C213.492,74.543 201.826,76.876 200.492,76.876 C211.325,79.043 216.992,75.876 218.159,75.043 C213.326,80.376 206.826,83.21 204.659,83.876 C206.992,84.21 217.159,82.376 222.326,78.043" fill="#2D2118" id="path921"/>
    <path d="M214.659,73.21 C213.492,74.543 201.826,76.876 200.492,76.876 C211.325,79.043 216.992,75.876 218.159,75.043 C213.326,80.376 206.826,83.21 204.659,83.876 C206.992,84.21 217.159,82.376 222.326,78.043" fill-opacity="0" stroke="#1A1919" stroke-width="1.5" stroke-linecap="round" stroke-linejoin="round" id="path923"/>
    <path d="M197.816,66.914 C195.216,66.263 188.93,65.83 186.992,66.21 L184.826,69.71 C187.659,69.71 193.492,69.876 197.159,70.543 L197.816,66.914" fill="#E36D9F" id="path925"/>
    <path d="M197.816,66.914 C195.216,66.263 188.93,65.83 186.992,66.21 L184.826,69.71 C187.659,69.71 193.492,69.876 197.159,70.543 z M208.492,92.377 C208.492,93.127 207.742,93.627 209.242,94.377 L207.492,95.627" fill-opacity="0" stroke="#1A1919" stroke-width="1.5" stroke-linecap="round" stroke-linejoin="round" id="path927"/>
    <path d="M200.408,85.043 C200.408,86.286 199.401,87.293 198.158,87.293 C196.916,87.293 195.908,86.286 195.908,85.043 C195.908,83.8 196.916,82.793 198.158,82.793 C199.401,82.793 200.408,83.8 200.408,85.043" fill="#1A1919" id="path929"/>
    <path d="M203.959,64.326 C203.039,63.959 199.445,63.741 198.526,64.292 C197.607,64.842 196.689,67.047 196.506,67.783 C196.138,68.702 196.138,70.355 197.24,71.458 C198.343,72.56 209.551,75.501 211.021,75.684 C212.492,75.868 213.962,75.501 214.697,74.03 C215.431,72.56 215.494,70.118 214.697,69.252 C212.256,66.601 203.959,64.326 203.959,64.326" fill="#E36D9F" id="path931"/>
    <path d="M203.959,64.326 C203.039,63.959 199.445,63.741 198.526,64.292 C197.607,64.842 196.689,67.047 196.506,67.783 C196.138,68.702 196.138,70.355 197.24,71.458 C198.343,72.56 209.551,75.501 211.021,75.684 C212.492,75.868 213.962,75.501 214.697,74.03 C215.431,72.56 215.494,70.118 214.697,69.252 C212.256,66.601 203.959,64.326 203.959,64.326 z" fill-opacity="0" stroke="#1A1919" stroke-width="1.5" stroke-linecap="round" stroke-linejoin="round" id="path933"/>
    <path d="M221.075,95.794 C221.075,97.036 220.068,98.044 218.825,98.044 C217.582,98.044 216.575,97.036 216.575,95.794 C216.575,94.551 217.582,93.544 218.825,93.544 C220.068,93.544 221.075,94.551 221.075,95.794" fill="#1A1919" id="path935"/>
    <path d="M202.576,64.46 C201.409,64.46 200.576,64.627 200.076,65.46 C199.576,66.293 198.863,68.199 200.409,69.126 C202.909,70.626 211.409,72.793 212.409,72.626 C212.409,72.626 213.01,72.058 213.409,71.126 C213.909,69.96 213.705,69.653 212.909,68.46 C212.242,67.46 205.576,64.793 202.576,64.46" fill="#FFFFFE" id="path937"/>
    <path d="M222.963,75.299 C222.262,75.299 220.417,76.809 220.242,77.51 C220.067,78.21 219.693,79.37 220.242,80.835 C220.767,82.235 226.717,88.185 229.168,89.41 C230.392,89.585 231.793,89.06 232.842,87.135 C232.842,87.135 234.547,84.918 233.535,83.061 C231.125,78.645 225.638,74.764 222.963,75.299" fill="#E36D9F" id="path939"/>
    <path d="M222.963,75.299 C222.262,75.299 220.417,76.809 220.242,77.51 C220.067,78.21 219.693,79.37 220.242,80.835 C220.767,82.235 226.717,88.185 229.168,89.41 C230.392,89.585 231.793,89.06 232.842,87.135 C232.842,87.135 234.547,84.918 233.535,83.061 C231.125,78.645 225.638,74.764 222.963,75.299 z" fill-opacity="0" stroke="#1A1919" stroke-width="1.5" stroke-linecap="round" stroke-linejoin="round" id="path941"/>
    <path d="M223.159,75.876 C222.159,76.543 221.697,78.199 221.826,78.71 C222.159,80.043 228.492,85.71 230.326,87.043 C230.992,87.21 231.659,87.21 232.326,86.543 C232.992,85.876 233.159,83.71 233.159,83.71 C232.659,81.21 227.825,77.21 224.992,75.876 C224.326,75.71 223.659,75.376 223.159,75.876" fill="#FFFFFE" id="path943"/>
    <path d="M198.992,72.876 C198.992,72.376 197.825,70.377 193.992,74.21" fill-opacity="0" stroke="#1A1919" stroke-width="1.5" stroke-linecap="round" stroke-linejoin="round" id="path945"/>
    <path d="M197.512,95.684 C198.896,96.61 204.792,100.627 209.025,101.73 C206.73,105.528 201.759,110.181 197.659,108.21 C194.23,106.561 195.39,99.639 197.512,95.684" fill="#1A1919" id="path947"/>
    <path d="M196.332,91.034 C195.341,92.531 193.013,92.737 191.133,91.493 C189.251,90.249 188.529,88.026 189.518,86.53 C190.509,85.033 192.836,84.827 194.717,86.071 C196.598,87.315 197.32,89.537 196.332,91.034" fill="#EB9174" id="path949"/>
    <path d="M222.185,103.637 C221.37,105.235 219.081,105.703 217.072,104.678 C215.061,103.655 214.094,101.528 214.908,99.928 C215.722,98.331 218.013,97.863 220.021,98.887 C222.031,99.911 223,102.038 222.185,103.637" fill="#EB9174" id="path951"/>
    <path d="M202.235,107.276 C200.244,109.02 199.844,109.26 197.659,108.21 C194.23,106.561 195.39,99.639 197.512,95.684 C198.54,96.372 201.387,98.338 204.518,99.758 C204.518,99.758 202.855,105.896 202.235,107.276" fill="#E05541" id="path953"/>
    <path d="M195.625,102.417 C195.353,104.958 195.822,107.255 197.576,108.17 C199.724,109.29 200.159,108.877 203.159,107.877 C203.659,107.377 203.326,107.544 203.326,107.544 L204.159,107.21 L202.159,107.544 C201.159,106.544 197.659,105.71 197.326,104.877 C196.659,103.71 196.09,101.29 195.625,102.417" fill="#FFFFFE" id="path955"/>
    <path d="M207.826,103.71 C208.264,103.094 208.676,102.309 209.025,101.73 C204.792,100.627 198.896,96.61 197.512,95.684 C197.074,96.5 196.65,97.435 196.283,98.42 C197.572,99.854 203.886,103.999 207.826,103.71" fill="#FFFFFE" id="path957"/>
    <path d="M197.512,95.684 C198.896,96.61 204.792,100.627 209.025,101.73 C206.73,105.528 201.759,110.181 197.659,108.21 C194.23,106.561 195.39,99.639 197.512,95.684 z" fill-opacity="0" stroke="#1A1919" stroke-width="1.2" stroke-linecap="round" stroke-linejoin="round" id="path959"/>
    <path d="M226.492,128.044 C226.492,128.044 227.159,129.21 225.659,129.21 C224.169,129.21 223.492,127.21 223.492,126.377 C222.658,125.544 222.492,123.544 223.492,122.877 C222.658,122.044 222.159,120.544 223.159,119.377 C222.992,118.044 223.992,116.71 223.992,116.71" fill-opacity="0" stroke="#1A1919" stroke-width="1.5" stroke-linecap="round" stroke-linejoin="round" id="path961"/>
    <path d="M171.492,162.21 C171.325,160.544 173.492,152.877 173.826,152.21 C174.659,150.377 174.992,149.21 174.992,147.544 L163.326,140.377 C162.992,140.877 156.325,163.044 156.492,167.21 C155.492,167.71 153.825,172.544 155.492,174.21 C157.159,175.877 154.658,174.21 155.492,174.21 C156.326,174.21 172.492,171.377 173.326,171.21 C174.159,171.044 177.826,170.027 177.992,168.194 C178.159,166.36 178.278,162.284 171.492,162.21" fill="#F4BB9D" id="path963"/>
    <path d="M171.492,162.21 C171.325,160.544 173.492,152.877 173.826,152.21 C174.659,150.377 174.992,149.21 174.992,147.544 L163.326,140.377 C162.992,140.877 156.325,163.044 156.492,167.21 C155.492,167.71 153.825,172.544 155.492,174.21 C157.159,175.877 154.658,174.21 155.492,174.21 C156.326,174.21 172.492,171.377 173.326,171.21 C174.159,171.044 177.826,170.027 177.992,168.194 C178.159,166.36 178.278,162.284 171.492,162.21 z" fill-opacity="0" stroke="#1A1919" stroke-width="1.5" stroke-linecap="round" stroke-linejoin="round" id="path965"/>
    <path d="M213.856,74.5 C215.439,75.333 219.692,77.618 220.359,78.618 L222.094,75.584 C220.76,74.084 216.742,71.71 215.242,71.376 L213.856,74.5" fill="#FFFFFE" id="path967"/>
    <path d="M213.856,74.5 C215.439,75.333 219.692,77.618 220.359,78.618 L222.094,75.584 C220.76,74.084 216.742,71.71 215.242,71.376 z" fill-opacity="0" stroke="#1A1919" stroke-width="1.5" stroke-linecap="round" stroke-linejoin="round" id="path969"/>
    <path d="M155.16,175.706 L154.966,172.189 C155.857,169.628 159.888,166.389 164.808,165.241 C170.659,163.877 176.701,165.627 178.367,167.127 C178.367,167.127 179.617,170.752 177.401,170.751 C177.117,171.242 155.583,175.426 155.16,175.706" fill="#BBAE92" id="path971"/>
    <path d="M155.16,175.706 L154.966,172.189 C155.857,169.628 159.888,166.389 164.808,165.241 C170.659,163.877 176.701,165.627 178.367,167.127 C178.367,167.127 179.617,170.752 177.401,170.751 C177.117,171.242 155.583,175.426 155.16,175.706 z" fill-opacity="0" stroke="#1A1919" stroke-width="1.5" stroke-linecap="round" stroke-linejoin="round" id="path973"/>
    <path d="M155.16,175.706 C154.403,172.257 160.886,169.195 164.092,167.838 C167.298,166.483 175.492,166.627 177.617,169.127 C180.9,172.989 173.283,176.995 168.118,178.545 C165.584,179.306 157.84,181.378 155.16,175.706" fill="#BBAE92" id="path975"/>
    <path d="M155.16,175.706 C154.403,172.257 160.886,169.195 164.092,167.838 C167.298,166.483 175.492,166.627 177.617,169.127 C180.9,172.989 173.283,176.995 168.118,178.545 C165.584,179.306 157.84,181.378 155.16,175.706 z" fill-opacity="0" stroke="#1A1919" stroke-width="1.5" stroke-linecap="round" stroke-linejoin="round" id="path977"/>
    <path d="M192.992,146.21 C191.326,153.044 188.867,163.161 180.826,159.377 C175.159,156.71 177.226,148.04 177.326,146.544 L192.992,146.21" fill="#F4BB9D" id="path979"/>
    <path d="M192.992,146.21 C191.326,153.044 188.867,163.161 180.826,159.377 C175.159,156.71 177.226,148.04 177.326,146.544 z" fill-opacity="0" stroke="#1A1919" stroke-width="1.5" stroke-linecap="round" stroke-linejoin="round" id="path981"/>
    <path d="M171.492,162.21 C169.033,162.188 164.658,163.71 162.443,165.448 L167.793,164.571 C168.324,163.935 172.117,162.856 173.799,162.856 C173.799,162.856 172.492,162.21 171.492,162.21" fill="#E2607D" id="path983"/>
    <path d="M171.492,162.21 C169.033,162.188 164.658,163.71 162.443,165.448 L167.793,164.571 C168.324,163.935 172.117,162.856 173.799,162.856 C173.799,162.856 172.492,162.21 171.492,162.21 z" fill-opacity="0" stroke="#1A1919" stroke-width="1" stroke-linecap="round" stroke-linejoin="round" id="path985"/>
    <path d="M207.569,71.663 L213.144,68.815 C213.072,68.705 212.996,68.589 212.909,68.46 C212.741,68.208 212.191,67.85 211.418,67.452 L204.764,70.848 C205.689,71.14 206.647,71.417 207.569,71.663" fill="#83CEE8" id="path987"/>
    <path d="M202.938,70.234 L209.834,66.714 C209.061,66.379 208.211,66.046 207.347,65.737 L200.555,69.206 C201.133,69.53 201.967,69.881 202.938,70.234" fill="#83CEE8" id="path989"/>
    <path d="M228.914,85.913 L233.021,84.708 C233.121,84.161 233.159,83.71 233.159,83.71 C233.096,83.393 232.963,83.053 232.773,82.698 L227.123,84.354 C227.76,84.924 228.375,85.46 228.914,85.913" fill="#83CEE8" id="path991"/>
    <path d="M229.551,79.005 L223.272,80.639 C223.968,81.387 224.838,82.244 225.748,83.095 L231.957,81.478 C231.31,80.653 230.467,79.801 229.551,79.005" fill="#83CEE8" id="path993"/>
    <path d="M151.074,111.246 C143.328,121.669 155.513,137.956 173.423,148.005 C191.332,158.053 208.496,160.368 215.085,149.177 L206.859,138.106 C201.976,140.646 193.12,137.484 183.158,131.378 C175.666,126.785 168.762,122.057 166.482,117.162 L151.074,111.246" fill="#FBCF3E" id="path995"/>
    <path d="M215.085,149.177 C208.496,160.368 191.332,158.053 173.423,148.005 C155.513,137.956 143.328,121.669 151.074,111.246 M206.859,138.106 C201.976,140.646 193.12,137.484 183.158,131.378 C175.666,126.785 168.762,122.057 166.482,117.162" fill-opacity="0" stroke="#1A1919" stroke-width="1.5" stroke-linecap="round" stroke-linejoin="round" id="path997"/>
    <path d="M155.242,129.127 C156.242,129.627 159.242,130.377 159.242,130.377 L159.826,131.71 C159.826,131.71 160.492,133.377 162.159,133.377 C163.826,133.377 164.492,134.377 165.159,136.044 C165.826,137.71 166.159,138.044 167.159,138.71 C168.159,139.378 172.159,139.377 172.492,141.044 C172.825,142.71 174.826,143.71 176.159,143.71 C177.492,143.71 179.826,144.044 179.826,145.044 C179.826,146.044 182.492,147.377 184.492,147.044 C186.492,146.71 188.826,148.71 189.826,150.044 C190.826,151.376 193.492,150.71 195.159,150.044 C196.826,149.376 198.492,151.377 199.492,152.71 C200.492,154.044 202.159,152.71 203.826,151.71 C205.492,150.71 207.492,151.71 208.826,152.044 C210.159,152.376 211.305,149.283 212.826,150.044 C214.992,151.127 216.742,146.627 216.742,146.627 L216.826,145.044 L214.492,147.377 C195.826,158.71 161.159,131.377 160.492,129.377 L157.992,126.627" fill="#FFE767" id="path999"/>
    <path d="M155.242,129.127 C156.242,129.627 159.242,130.377 159.242,130.377 L159.826,131.71 C159.826,131.71 160.492,133.377 162.159,133.377 C163.826,133.377 164.492,134.377 165.159,136.044 C165.826,137.71 166.159,138.044 167.159,138.71 C168.159,139.378 172.159,139.377 172.492,141.044 C172.825,142.71 174.826,143.71 176.159,143.71 C177.492,143.71 179.826,144.044 179.826,145.044 C179.826,146.044 182.492,147.377 184.492,147.044 C186.492,146.71 188.826,148.71 189.826,150.044 C190.826,151.376 193.492,150.71 195.159,150.044 C196.826,149.376 198.492,151.377 199.492,152.71 C200.492,154.044 202.159,152.71 203.826,151.71 C205.492,150.71 207.492,151.71 208.826,152.044 C210.159,152.376 211.305,149.283 212.826,150.044 C214.992,151.127 216.742,146.627 216.742,146.627 L216.826,145.044 L214.492,147.377 C195.826,158.71 161.159,131.377 160.492,129.377 L157.992,126.627" fill-opacity="0" stroke="#1A1919" stroke-width="1" stroke-linecap="round" stroke-linejoin="round" id="path1001"/>
    <path d="M172.492,131.377 C176.626,134.557 205.664,151.567 212.06,140.79 M210.492,134.71 L211.158,135.71" fill-opacity="0" stroke="#FFF2B5" stroke-width="3" stroke-linecap="round" stroke-linejoin="round" id="path1003"/>
    <path d="M220.658,124.21 C220.658,124.21 221.326,125.544 222.826,124.71" fill-opacity="0" stroke="#1A1919" stroke-width="1.5" stroke-linecap="round" stroke-linejoin="round" id="path1005"/>
    <path d="M127.492,158.127 C127.992,158.627 130.492,159.627 132.242,159.377 C133.992,159.127 134.742,153.627 134.742,153.627 L126.242,146.877 L122.742,147.627 C122.742,147.627 122.617,153.252 127.492,158.127" fill="#1E4B75" id="path1007"/>
    <path d="M127.492,158.127 C127.992,158.627 130.492,159.627 132.242,159.377 C133.992,159.127 134.742,153.627 134.742,153.627 L126.242,146.877 L122.742,147.627 C122.742,147.627 122.617,153.252 127.492,158.127 z" fill-opacity="0" stroke="#1A1919" stroke-width="1.5" stroke-linecap="round" stroke-linejoin="round" id="path1009"/>
    <path d="M145.885,65.053 C150.216,64.7 154.197,60.35 153.487,50.686 C152.777,41.022 145.415,34.388 142.449,42.069 L145.885,65.053" fill="#F4BB9D" id="path1011"/>
    <path d="M145.885,65.053 C150.216,64.7 154.197,60.35 153.487,50.686 C152.777,41.022 145.415,34.388 142.449,42.069 z M145.492,51.376 C144.159,44.376 147.492,40.378 149.159,45.71 M145.826,50.044 C145.826,50.044 148.158,50.71 148.492,51.71 C148.826,52.71 146.826,55.71 146.826,55.71" fill-opacity="0" stroke="#1A1919" stroke-width="1.5" stroke-linecap="round" stroke-linejoin="round" id="path1013"/>
    <path d="M46.826,56.71 C42.826,52.376 38.577,55.35 38.159,60.376 C37.826,64.376 42.825,81.376 51.159,78.71 L46.826,56.71" fill="#F4BB9D" id="path1015"/>
    <path d="M46.826,56.71 C42.826,52.376 38.577,55.35 38.159,60.376 C37.826,64.376 42.825,81.376 51.159,78.71 z M41.826,62.043 C41.159,59.376 42.493,58.71 45.826,62.71 M45.492,64.71 C45.825,65.71 44.159,66.043 44.159,67.71 C44.159,69.376 45.158,69.71 46.492,70.71" fill-opacity="0" stroke="#1A1919" stroke-width="1.5" stroke-linecap="round" stroke-linejoin="round" id="path1017"/>
    <path d="M52.492,81.626 C48.992,79.126 37.992,69.876 36.242,69.126 L25.742,91.627 C33.992,96.127 67.242,106.377 75.742,108.877 C75.242,113.377 74.242,130.877 78.242,141.627 C81.492,140.127 106.742,127.877 123.492,127.627 L122.492,111.877 L120.992,92.877 C120.992,92.877 100.992,97.127 98.742,97.627 C96.492,98.127 71.992,98.127 66.742,94.877 C61.492,91.627 52.492,81.626 52.492,81.626" fill="#F4BB9D" id="path1019"/>
    <path d="M52.492,81.626 C48.992,79.126 37.992,69.876 36.242,69.126 L25.742,91.627 C33.992,96.127 67.242,106.377 75.742,108.877 C75.242,113.377 74.242,130.877 78.242,141.627 C81.492,140.127 106.742,127.877 123.492,127.627 L122.492,111.877 L120.992,92.877 C120.992,92.877 100.992,97.127 98.742,97.627 C96.492,98.127 71.992,98.127 66.742,94.877 C61.492,91.627 52.492,81.626 52.492,81.626 z" fill-opacity="0" stroke="#1A1919" stroke-width="1.5" stroke-linecap="round" stroke-linejoin="round" id="path1021"/>
    <path d="M27.242,93.377 C23.492,96.127 17.742,94.877 14.742,93.127 C3.742,92.377 0.242,83.376 0.825,80.71 C-0.091,67.293 7.742,57.126 12.492,53.626 C13.738,52.519 15.022,51.2 17.492,50.376 C24.492,48.043 31.325,57.626 33.992,60.626 C38.492,61.876 40.512,66.478 39.742,72.126 C38.992,77.626 37.242,80.376 34.492,83.876 C33.242,86.626 29.992,91.627 27.242,93.377" fill="#F4BB9D" id="path1023"/>
    <path d="M27.242,93.377 C23.492,96.127 17.742,94.877 14.742,93.127 C3.742,92.377 0.242,83.376 0.825,80.71 C-0.091,67.293 7.742,57.126 12.492,53.626 C13.738,52.519 15.022,51.2 17.492,50.376 C24.492,48.043 31.325,57.626 33.992,60.626 C38.492,61.876 40.512,66.478 39.742,72.126 C38.992,77.626 37.242,80.376 34.492,83.876 C33.242,86.626 29.992,91.627 27.242,93.377 z M19.825,61.376 C19.825,61.376 26.742,67.126 27.742,68.876 M14.242,69.876 C18.242,73.626 24.522,79.37 25.492,79.126 C27.492,78.626 26.492,79.126 26.492,79.126 M10.242,79.376 C13.492,82.126 18.492,86.376 20.742,85.876 C22.992,85.376 26.742,82.376 25.492,79.126 M19.742,85.876 C20.492,87.376 17.742,93.044 15.492,93.044" fill-opacity="0" stroke="#1A1919" stroke-width="1.5" stroke-linecap="round" stroke-linejoin="round" id="path1025"/>
    <path d="M33.992,60.626 C28.825,62.043 26.908,67.793 26.158,69.043 C25.408,70.293 21.242,76.626 24.492,80.376 C28.242,82.126 30.492,81.626 34.492,76.376" fill="#F4BB9D" id="path1027"/>
    <path d="M33.992,60.626 C28.825,62.043 26.908,67.793 26.158,69.043 C25.408,70.293 21.242,76.626 24.492,80.376 C28.242,82.126 30.492,81.626 34.492,76.376" fill-opacity="0" stroke="#1A1919" stroke-width="1.5" stroke-linecap="round" stroke-linejoin="round" id="path1029"/>
    <path d="M116.159,95.71 C116.159,101.969 104.817,107.044 90.825,107.044 C76.834,107.044 65.492,101.969 65.492,95.71 C65.492,89.451 76.834,84.376 90.825,84.376 C104.817,84.376 116.159,89.451 116.159,95.71" fill="#1A1919" id="path1031"/>
    <path d="M116.159,95.71 C116.159,101.969 104.817,107.044 90.825,107.044 C76.834,107.044 65.492,101.969 65.492,95.71 C65.492,89.451 76.834,84.376 90.825,84.376 C104.817,84.376 116.159,89.451 116.159,95.71 z" fill-opacity="0" stroke="#1A1919" stroke-width="1.5" stroke-linecap="round" stroke-linejoin="round" id="path1033"/>
    <path d="M126.159,19.376 C134.159,24.71 140.826,34.376 144.826,46.043 C150.193,61.698 146.159,94.377 107.492,102.377 C68.825,110.377 49.491,88.292 46.492,74.043 C42.492,55.043 48.492,43.376 50.492,38.044 C53.825,30.71 65.159,16.71 90.159,13.043 C115.159,9.376 120.492,15.71 126.159,19.376" fill="#F4BB9D" id="path1035"/>
    <path d="M126.159,19.376 C134.159,24.71 140.826,34.376 144.826,46.043 C150.193,61.698 146.159,94.377 107.492,102.377 C68.825,110.377 49.491,88.292 46.492,74.043 C42.492,55.043 48.492,43.376 50.492,38.044 C53.825,30.71 65.159,16.71 90.159,13.043 C115.159,9.376 120.492,15.71 126.159,19.376 z M93.825,47.376 C93.159,48.71 90.492,49.71 88.825,49.71 C88.825,49.71 90.826,52.376 92.159,53.376" fill-opacity="0" stroke="#1A1919" stroke-width="1.5" stroke-linecap="round" stroke-linejoin="round" id="path1037"/>
    <path d="M76.492,49.71 C76.492,51.735 74.85,53.376 72.825,53.376 C70.801,53.376 69.159,51.735 69.159,49.71 C69.159,47.685 70.801,46.043 72.825,46.043 C74.85,46.043 76.492,47.685 76.492,49.71" fill="#1A1919" id="path1039"/>
    <path d="M118.492,42.376 C118.492,44.401 116.85,46.043 114.825,46.043 C112.801,46.043 111.159,44.401 111.159,42.376 C111.159,40.352 112.801,38.71 114.825,38.71 C116.85,38.71 118.492,40.352 118.492,42.376" fill="#1A1919" id="path1041"/>
    <path d="M125.492,20.043 C125.159,22.71 125.159,22.71 124.159,24.376 C121.159,19.043 114.492,14.043 113.159,14.043 C101.492,15.71 91.492,29.71 91.825,31.71 C90.492,30.71 88.492,28.376 88.492,28.376 L87.825,30.376 C85.159,29.043 81.825,23.376 81.825,19.71 C78.159,21.376 73.159,26.376 72.159,27.376 C71.493,25.043 71.825,23.376 72.159,21.376 C66.826,23.71 59.159,32.376 58.492,34.043 C58.492,34.043 57.492,33.043 57.492,31.376 C56.492,32.71 53.159,35.71 52.492,39.376 C46.158,32.71 55.159,23.71 57.159,22.376 C55.492,21.71 51.825,21.043 51.825,19.376 C55.159,18.71 62.542,15.376 66.825,12.043 C72.825,7.376 82.159,4.376 87.825,4.376 C87.825,4.376 83.825,2.043 82.492,2.376 C84.825,1.043 100.159,-1.624 111.492,5.376 C111.492,5.376 111.159,3.043 108.825,1.376 C110.825,0.71 115.159,2.043 119.825,8.376 C125.159,9.376 136.826,18.71 136.159,31.043 C134.826,27.376 128.159,22.043 125.492,20.043" fill="#1A1919" id="path1043"/>
    <path d="M125.492,20.043 C125.159,22.71 125.159,22.71 124.159,24.376 C121.159,19.043 114.492,14.043 113.159,14.043 C101.492,15.71 91.492,29.71 91.825,31.71 C90.492,30.71 88.492,28.376 88.492,28.376 L87.825,30.376 C85.159,29.043 81.825,23.376 81.825,19.71 C78.159,21.376 73.159,26.376 72.159,27.376 C71.493,25.043 71.825,23.376 72.159,21.376 C66.826,23.71 59.159,32.376 58.492,34.043 C58.492,34.043 57.492,33.043 57.492,31.376 C56.492,32.71 53.159,35.71 52.492,39.376 C46.158,32.71 55.159,23.71 57.159,22.376 C55.492,21.71 51.825,21.043 51.825,19.376 C55.159,18.71 62.542,15.376 66.825,12.043 C72.825,7.376 82.159,4.376 87.825,4.376 C87.825,4.376 83.825,2.043 82.492,2.376 C84.825,1.043 100.159,-1.624 111.492,5.376 C111.492,5.376 111.159,3.043 108.825,1.376 C110.825,0.71 115.159,2.043 119.825,8.376 C125.159,9.376 136.826,18.71 136.159,31.043 C134.826,27.376 128.159,22.043 125.492,20.043 z M63.492,34.043 C61.825,31.376 58.492,32.71 58.492,38.044" fill-opacity="0" stroke="#1A1919" stroke-width="1.5" stroke-linecap="round" stroke-linejoin="round" id="path1045"/>
    <path d="M88.499,81.864 C91.338,85.657 95.479,88.296 101.492,87.71 C109.846,86.895 116.492,79.377 113.159,60.71 C108.159,64.043 88.492,67.043 82.825,66.043 C83.386,70.336 84.887,77.036 88.499,81.864" fill="#1A1919" id="path1047"/>
    <path d="M117.825,24.043 C119.159,19.043 124.159,22.71 125.825,27.71" fill-opacity="0" stroke="#1A1919" stroke-width="1.5" stroke-linecap="round" stroke-linejoin="round" id="path1049"/>
    <path d="M113.844,74.84 C112.037,83.868 106.656,87.542 100.636,87.711 C94.597,87.882 90.647,84.964 88.077,80.985 C87.225,74.064 93.437,66.165 93.804,65.208 C98.889,64.964 104.643,64.293 108.933,63.322 C110.247,64.652 113.37,71.383 113.844,74.84" fill="#E05541" id="path1051"/>
    <path d="M112.66,78.747 C110.566,84.537 106.313,87.24 101.492,87.71 C95.479,88.296 91.338,85.657 88.499,81.864 C88.825,81.043 89.159,79.043 91.159,80.043 C93.159,81.043 94.159,83.043 95.159,83.043 C96.159,83.043 104.492,82.377 106.159,81.71 C106.825,80.376 110.492,77.376 110.492,77.376 C110.492,77.376 112.494,77.116 112.66,78.747" fill="#FFFFFE" id="path1053"/>
    <path d="M113.706,64.389 C113.569,63.214 113.388,61.989 113.159,60.71 C108.159,64.043 88.492,67.043 82.825,66.043 C82.968,67.135 83.171,68.383 83.455,69.717 C93.492,71.376 103.587,71.737 113.706,64.389" fill="#FFFFFE" id="path1055"/>
    <path d="M76.912,61.079 C77.265,64.856 73.482,68.391 68.462,68.977 C63.442,69.563 59.086,66.977 58.733,63.201 C58.379,59.424 62.163,55.888 67.183,55.302 C72.203,54.716 76.559,57.303 76.912,61.079" fill="#EB9174" id="path1057"/>
    <path d="M135.248,50.315 C135.601,54.092 131.818,57.627 126.798,58.214 C121.778,58.799 117.422,56.214 117.069,52.437 C116.715,48.661 120.499,45.125 125.519,44.539 C130.539,43.953 134.894,46.54 135.248,50.315" fill="#EB9174" id="path1059"/>
    <path d="M112.159,59.71 C112.159,59.71 115.159,61.71 116.825,61.71 M83.492,64.043 C83.492,64.043 81.825,66.71 79.825,67.376" fill-opacity="0" stroke="#1A1919" stroke-width="1.5" stroke-linecap="round" stroke-linejoin="round" id="path1061"/>
    <path d="M87.66,112.717 C88.208,114.081 86.868,115.907 84.664,116.793 C82.46,117.678 80.23,117.293 79.68,115.928 C79.131,114.564 80.473,112.739 82.676,111.852 C84.88,110.965 87.111,111.352 87.66,112.717" fill="#F2B8AA" id="path1063"/>
    <path d="M86.787,113.068 C87.216,114.133 86.169,115.559 84.447,116.252 C82.725,116.944 80.982,116.642 80.553,115.577 C80.124,114.511 81.172,113.086 82.893,112.392 C84.615,111.7 86.359,112.002 86.787,113.068" fill="#EEA494" id="path1065"/>
    <path d="M169.971,99.901 C171.312,118.532 159.744,134.594 144.131,135.778 C128.517,136.962 114.773,122.817 113.431,104.186 C112.09,85.555 123.659,69.493 139.271,68.309 C154.885,67.126 168.629,81.27 169.971,99.901" fill="#91C351" id="path1067"/>
    <path d="M117.195,101.006 C117.195,89.623 120.992,79.464 126.933,72.796 C118.04,79.028 112.478,90.956 113.431,104.186 C114.388,117.462 121.642,128.452 131.381,133.251 C122.951,127.18 117.195,115.024 117.195,101.006" fill="#6CA342" id="path1069"/>
    <path d="M152.419,105.021 C152.83,114.501 149.893,118.208 145.992,118.377 C142.09,118.545 138.701,115.114 138.289,105.633 M169.971,99.901 C171.312,118.532 159.744,134.594 144.131,135.778 C128.517,136.962 114.773,122.817 113.431,104.186 C112.09,85.555 123.659,69.493 139.271,68.309 C154.885,67.126 168.629,81.27 169.971,99.901 z" fill-opacity="0" stroke="#1A1919" stroke-width="1.5" stroke-linecap="round" stroke-linejoin="round" id="path1071"/>
    <path d="M139.826,91.377 C138.826,92.377 138.492,96.877 138.742,98.127 C138.242,97.627 134.773,96.877 133.742,96.877 C131.742,96.877 127.742,98.588 127.742,101.877 C127.742,102.877 127.742,103.627 128.492,104.127 C127.492,105.377 126.242,109.627 127.492,111.377 C128.742,113.127 129.242,112.377 129.992,112.377 C129.242,114.127 129.492,115.377 130.492,116.377 C131.492,117.377 132.742,116.877 133.492,116.627 C132.492,118.627 131.992,118.127 133.242,119.627 C134.492,121.127 136.492,120.877 137.742,120.377 C137.242,121.377 136.742,122.377 138.742,122.877 C140.197,123.241 145.492,122.127 147.742,117.377 C155.242,114.127 162.387,111.142 161.242,103.127 C160.242,96.127 157.492,96.377 155.742,95.377 C153.992,93.627 143.826,90.377 139.826,91.377" fill="#F4BB9D" id="path1073"/>
    <path d="M139.826,91.377 C138.826,92.377 138.492,96.877 138.742,98.127 C138.242,97.627 134.773,96.877 133.742,96.877 C131.742,96.877 127.742,98.588 127.742,101.877 C127.742,102.877 127.742,103.627 128.492,104.127 C127.492,105.377 126.242,109.627 127.492,111.377 C128.742,113.127 129.242,112.377 129.992,112.377 C129.242,114.127 129.492,115.377 130.492,116.377 C131.492,117.377 132.742,116.877 133.492,116.627 C132.492,118.627 131.992,118.127 133.242,119.627 C134.492,121.127 136.492,120.877 137.742,120.377 C137.242,121.377 136.742,122.377 138.742,122.877 C140.197,123.241 145.492,122.127 147.742,117.377 C155.242,114.127 162.387,111.142 161.242,103.127 C160.242,96.127 157.492,96.377 155.742,95.377 C153.992,93.627 143.826,90.377 139.826,91.377 z M153.492,97.127 C153.492,97.127 143.492,99.127 141.742,99.627 M138.742,98.127 C138.742,98.127 140.992,99.377 141.992,100.877 M134.742,98.627 C133.492,98.877 129.992,101.377 128.492,104.127" fill-opacity="0" stroke="#1A1919" stroke-width="1.5" stroke-linecap="round" stroke-linejoin="round" id="path1075"/>
    <path d="M120.492,80.147 C119.026,81.274 118.66,80.523 118.66,82.778 C118.66,85.034 118.66,87.664 117.561,89.168 C116.462,90.67 114.264,89.168 115.73,91.798 C117.195,94.43 116.095,96.684 115.729,98.94 C115.363,101.195 114.63,101.194 115.729,102.698 C116.828,104.202 117.194,105.706 116.828,107.961 C116.462,110.215 114.996,112.094 116.828,113.598 C118.66,115.101 119.393,117.356 119.393,118.484 C119.393,119.612 119.76,121.491 120.859,121.866 C121.958,122.243 122.69,124.122 123.789,125.626 C124.888,127.128 125.988,128.631 127.087,129.008 C128.186,129.383 130.384,129.759 130.384,129.759 C125.255,123.747 122.69,101.571 123.423,95.932 C123.822,92.862 127.264,86.893 130.967,81.911" fill="#84BF41" id="path1077"/>
    <path d="M130.384,129.759 C130.384,129.759 128.186,129.383 127.087,129.008 C125.988,128.631 124.888,127.128 123.789,125.626 C122.69,124.122 121.958,122.243 120.859,121.866 C119.76,121.491 119.393,119.612 119.393,118.484 C119.393,117.356 118.66,115.101 116.828,113.598 C114.996,112.094 116.462,110.215 116.828,107.961 C117.194,105.706 116.828,104.202 115.729,102.698 C114.63,101.194 115.363,101.195 115.729,98.94 C116.095,96.684 117.195,94.43 115.73,91.798 C114.264,89.168 115.919,89.721 117.018,88.217 C118.117,86.714 117.598,85.119 117.598,82.864 C117.598,80.608 118.597,80.421 120.063,79.293 C120.582,78.894 120.672,77.372 120.643,76.765 C120.602,75.924 123.398,74.981 123.398,74.981 L125.283,74.237 C124.847,74.98 122.548,78.471 121.958,80.147 C121.958,80.147 108.035,109.839 129.285,127.879" fill="#84BF41" id="path1079"/>
    <path d="M130.384,129.759 C130.384,129.759 128.186,129.383 127.087,129.008 C125.988,128.631 124.888,127.128 123.789,125.626 C122.69,124.122 121.958,122.243 120.859,121.866 C119.76,121.491 119.393,119.612 119.393,118.484 C119.393,117.356 118.66,115.101 116.828,113.598 C114.996,112.094 116.462,110.215 116.828,107.961 C117.194,105.706 116.828,104.202 115.729,102.698 C114.63,101.194 115.363,101.195 115.729,98.94 C116.095,96.684 117.195,94.43 115.73,91.798 C114.264,89.168 115.919,89.721 117.018,88.217 C118.117,86.714 117.598,85.119 117.598,82.864 C117.598,80.608 118.597,80.421 120.063,79.293 C120.582,78.894 120.672,77.372 120.643,76.765 C120.602,75.924 123.398,74.981 123.398,74.981 L125.283,74.237 C124.847,74.98 122.548,78.471 121.958,80.147 C121.958,80.147 108.035,109.839 129.285,127.879" fill-opacity="0" stroke="#1A1919" stroke-width="1" stroke-linecap="round" stroke-linejoin="round" id="path1081"/>
    <path d="M133.742,108.627 C133.742,108.627 130.492,111.377 129.992,112.377 M136.742,113.627 C136.742,113.627 133.992,115.127 133.492,116.627 M140.242,117.877 L137.742,120.377 M147.742,114.377 C147.742,114.377 147.992,116.377 146.992,118.627" fill-opacity="0" stroke="#1A1919" stroke-width="1.5" stroke-linecap="round" stroke-linejoin="round" id="path1083"/>
    <path d="M90.003,174.364 C90.748,179.864 92.74,187.616 100.489,188.874 C99.487,190.123 98.235,192.622 99.233,194.123 C99.732,195.373 100.981,195.875 100.981,195.875 C101.231,196.375 102.231,196.376 102.981,196.627 C103.23,197.377 104.979,198.128 105.979,198.129 C105.728,199.129 106.977,199.88 108.977,199.882 C110.977,199.884 115.229,198.639 115.232,195.139 C115.983,193.889 116.488,189.89 116.24,187.639 C115.992,185.389 115.495,182.389 115.498,179.139 C115.502,175.889 115.258,169.389 109.256,171.383 C109.256,171.383 108.242,167.627 108.242,166.627 C108.242,166.627 92.514,171.1 90.003,174.364" fill="#F4BB9D" id="path1085"/>
    <path d="M90.003,174.364 C90.748,179.864 92.74,187.616 100.489,188.874 C99.487,190.123 98.235,192.622 99.233,194.123 C99.732,195.373 100.981,195.875 100.981,195.875 C101.231,196.375 102.231,196.376 102.981,196.627 C103.23,197.377 104.979,198.128 105.979,198.129 C105.728,199.129 106.977,199.88 108.977,199.882 C110.977,199.884 115.229,198.639 115.232,195.139 C115.983,193.889 116.488,189.89 116.24,187.639 C115.992,185.389 115.495,182.389 115.498,179.139 C115.502,175.889 115.258,169.389 109.256,171.383 C109.256,171.383 108.242,167.627 108.242,166.627 C108.242,166.627 92.514,171.1 90.003,174.364 z M109.256,171.383 C109.256,171.383 109.492,173.127 109.492,173.877 M100.489,188.874 C102.992,189.377 109.492,188.127 109.742,182.877 M108.742,192.877 C108.742,192.877 106.992,195.377 106.492,196.127 C105.992,196.877 105.492,196.627 105.742,197.627 M106.492,196.127 C108.492,195.127 110.242,195.627 110.992,195.877 M104.242,193.377 C104.242,193.377 103.242,195.127 103.492,196.377" fill-opacity="0" stroke="#1A1919" stroke-width="1.5" stroke-linecap="round" stroke-linejoin="round" id="path1087"/>
    <path d="M101.742,192.127 C101.742,192.127 100.721,195.373 100.981,195.875 M99.992,192.627 L99.742,193.877" fill-opacity="0" stroke="#1A1919" stroke-width="1" stroke-linecap="round" stroke-linejoin="round" id="path1089"/>
    <path d="M122.742,147.627 C124.242,150.127 127.242,152.627 131.742,154.877 C131.492,161.377 132.742,168.127 134.492,171.627 C134.492,172.581 134.488,173.604 134.541,174.639 C135.242,175.627 153.242,162.377 153.742,160.877 C153.992,159.127 152.992,144.877 150.742,138.377 C149.742,135.377 143.992,128.377 134.492,130.127 C132.742,130.627 121.742,134.627 122.742,147.627" fill="#F4BB9D" id="path1091"/>
    <path d="M122.742,147.627 C124.242,150.127 127.242,152.627 131.742,154.877 C131.492,161.377 132.742,168.127 134.492,171.627 C134.492,172.581 134.488,173.604 134.541,174.639 C135.242,175.627 153.242,162.377 153.742,160.877 C153.992,159.127 152.992,144.877 150.742,138.377 C149.742,135.377 143.992,128.377 134.492,130.127 C132.742,130.627 121.742,134.627 122.742,147.627 z" fill-opacity="0" stroke="#1A1919" stroke-width="1.5" stroke-linecap="round" stroke-linejoin="round" id="path1093"/>
    <path d="M89.992,174.044 C89.887,175.2 90.659,177.044 91.325,179.544 C91.87,181.585 107.67,170.653 108.825,167.71 C109.981,164.768 108.073,166.227 107.547,166.438 C107.022,166.647 89.992,174.044 89.992,174.044" fill="#1A1919" id="path1095"/>
    <path d="M89.992,174.044 C89.887,175.2 90.659,177.044 91.325,179.544 C91.87,181.585 107.67,170.653 108.825,167.71 C109.981,164.768 108.073,166.227 107.547,166.438 C107.022,166.647 89.992,174.044 89.992,174.044 z M146.015,83.223 C145.193,83.512 141.453,84.024 139.508,91.372" fill-opacity="0" stroke="#1A1919" stroke-width="1.5" stroke-linecap="round" stroke-linejoin="round" id="path1097"/>
    <path d="M139.508,91.372 C140.502,87.62 141.963,85.649 143.265,84.583 C146.128,86.293 147.99,91.214 148.388,92.145 C147.99,92.145 141.533,90.731 139.508,91.372" fill="#FFFFFE" id="path1099"/>
    <path d="M139.508,91.372 C140.502,87.62 141.963,85.649 143.265,84.583 C146.128,86.293 147.99,91.214 148.388,92.145 C147.99,92.145 141.533,90.731 139.508,91.372 z" fill-opacity="0" stroke="#1A1919" stroke-width="1.5" stroke-linecap="round" stroke-linejoin="round" id="path1101"/>
    <path d="M123.492,127.627 C106.742,127.877 81.492,140.127 78.242,141.627 C77.242,141.877 76.742,143.627 77.242,144.877 C77.742,146.127 78.742,147.127 78.742,147.127 C77.992,150.377 78.242,156.127 78.992,159.877 C79.742,163.627 83.492,175.127 85.242,177.377 C89.992,177.127 107.242,170.627 110.742,166.127 C110.742,163.627 110.492,156.877 112.242,155.627 C113.992,154.377 118.742,152.877 120.492,152.877 C121.742,154.877 125.992,157.627 127.492,158.127 C124.742,155.877 123.638,146.94 125.992,141.377 C128.742,134.877 135.396,129.922 142.742,132.127 C145.242,132.877 149.992,135.627 150.992,138.877 C150.492,133.877 140.742,121.627 125.492,129.377 L123.492,127.627" fill="#417AB1" id="path1103"/>
    <path d="M123.492,127.627 C106.742,127.877 81.492,140.127 78.242,141.627 C77.242,141.877 76.742,143.627 77.242,144.877 C77.742,146.127 78.742,147.127 78.742,147.127 C77.992,150.377 78.242,156.127 78.992,159.877 C79.742,163.627 83.492,175.127 85.242,177.377 C89.992,177.127 107.242,170.627 110.742,166.127 C110.742,163.627 110.492,156.877 112.242,155.627 C113.992,154.377 118.742,152.877 120.492,152.877 C121.742,154.877 125.992,157.627 127.492,158.127 C124.742,155.877 123.638,146.94 125.992,141.377 C128.742,134.877 135.396,129.922 142.742,132.127 C145.242,132.877 149.992,135.627 150.992,138.877 C150.492,133.877 140.742,121.627 125.492,129.377 z M80.492,143.377 L80.992,145.627 M83.492,141.877 L83.992,144.127 M85.992,140.377 L86.742,142.877 M89.992,138.627 L90.492,141.127 M97.492,135.627 L97.742,137.627 M114.992,130.877 L115.242,132.627 M116.992,130.127 L117.492,132.127 M120.242,129.627 C120.242,129.627 120.492,130.377 120.492,131.127 M117.992,145.877 C117.992,147.127 118.242,150.127 120.492,152.877" fill-opacity="0" stroke="#1A1919" stroke-width="1.5" stroke-linecap="round" stroke-linejoin="round" id="path1105"/>
    <path d="M134.492,171.627 C134.492,176.127 134.406,182.137 140.492,183.877 C143.992,184.877 150.742,185.127 154.492,176.127 C156.742,172.877 161.742,167.627 161.742,158.627 C163.492,155.877 163.992,152.627 162.242,152.377 C162.492,149.627 161.742,147.627 160.492,148.127 C160.742,144.877 158.992,142.877 157.242,144.377 C156.992,142.127 153.492,138.627 151.492,144.377 C151.742,141.627 151.242,141.127 150.242,139.877 C149.242,138.627 144.019,137.387 142.242,142.127 C141.492,144.127 141.742,146.377 141.742,147.377 C140.992,148.127 136.992,151.627 137.242,159.877" fill="#F4BB9D" id="path1107"/>
    <path d="M134.492,171.627 C134.492,176.127 134.406,182.137 140.492,183.877 C143.992,184.877 150.742,185.127 154.492,176.127 C156.742,172.877 161.742,167.627 161.742,158.627 C163.492,155.877 163.992,152.627 162.242,152.377 C162.492,149.627 161.742,147.627 160.492,148.127 C160.742,144.877 158.992,142.877 157.242,144.377 C156.992,142.127 153.492,138.627 151.492,144.377 C151.742,141.627 151.242,141.127 150.242,139.877 C149.242,138.627 144.019,137.387 142.242,142.127 C141.492,144.127 141.742,146.377 141.742,147.377 C140.992,148.127 136.992,151.627 137.242,159.877 M135.242,143.627 C133.992,145.377 131.992,149.877 131.742,154.877 M144.992,148.127 C148.742,147.627 158.992,152.877 160.492,155.877 M151.242,145.127 C151.242,145.127 150.492,147.127 148.992,148.377 M157.242,144.627 C156.992,145.627 155.992,147.627 155.242,148.127 M160.492,148.627 C160.242,149.627 159.242,150.127 158.492,150.877 M161.992,152.627 L160.742,154.127 M144.992,160.377 C145.992,162.127 151.492,165.627 152.742,166.377 M88.499,81.864 C91.338,85.657 95.479,88.296 101.492,87.71 C109.846,86.895 116.492,79.377 113.159,60.71 C108.159,64.043 88.492,67.043 82.825,66.043 C83.386,70.336 84.887,77.036 88.499,81.864 z M101.506,128.46 C102.506,128.43 104.191,129.047 107.141,127.294" fill-opacity="0" stroke="#1A1919" stroke-width="1.5" stroke-linecap="round" stroke-linejoin="round" id="path1109"/>
    <path d="M191.159,175.71 C188.33,177.124 180.492,179.044 187.492,180.71 C194.492,182.377 198.158,188.044 201.492,186.71 C204.826,185.377 207.159,178.044 204.826,176.044 C202.492,174.044 195.159,173.71 191.159,175.71" fill="#4AAEAF" id="path1111"/>
    <path d="M135.345,75.237 C130.008,77.602 125.634,83.131 124.287,90.628 C123.238,96.473 121.357,107.167 128.318,119.194" fill-opacity="0" stroke="#C1DA94" stroke-width="3" stroke-linecap="round" stroke-linejoin="round" id="path1113"/>
    <path d="M131.159,48.376 C131.159,49.113 130.039,49.71 128.659,49.71 C127.278,49.71 126.159,49.113 126.159,48.376 C126.159,47.64 127.278,47.043 128.659,47.043 C130.039,47.043 131.159,47.64 131.159,48.376" fill="#FFFFFE" id="path1115"/>
    <path d="M72.159,57.71 C72.159,58.446 71.04,59.043 69.659,59.043 C68.278,59.043 67.159,58.446 67.159,57.71 C67.159,56.973 68.278,56.377 69.659,56.377 C71.04,56.377 72.159,56.973 72.159,57.71" fill="#FFFFFE" id="path1117"/>
    <path d="M187.159,175.377 C189.159,174.044 199.826,170.376 203.159,173.044 C206.492,175.71 206.159,178.71 205.159,180.044 C201.826,181.044 200.825,179.71 200.492,178.377 C200.159,177.044 198.159,175.376 196.159,176.044 C194.159,176.71 185.159,178.044 187.159,175.377" fill="#FFFFFE" id="path1119"/>
    <path d="M152,77.14 C150.576,75.993 149.09,75.142 147.576,74.567" fill-opacity="0" stroke="#C1DA94" stroke-width="3" stroke-linecap="round" stroke-linejoin="round" id="path1121"/>
  </g>
</svg>
